<?xml version="1.0" encoding="UTF-8"?>
<svg version="1.1" xmlns="http://www.w3.org/2000/svg" width="128" height="128">
<path d="M0 0 C0.9182959 0.00829834 1.8365918 0.01659668 2.78271484 0.02514648 C16.58997071 0.36782789 27.75459629 5.76362657 37.875 15.125 C47.58434403 25.43245557 52.2271363 37.8041546 52.0625 51.8125 C52.05420166 52.7307959 52.04590332 53.6490918 52.03735352 54.59521484 C51.69467211 68.40247071 46.29887343 79.56709629 36.9375 89.6875 C26.54130565 99.48043356 14.22412542 103.99993298 0.125 103.8125 C-0.74769531 103.82410156 -1.62039062 103.83570312 -2.51953125 103.84765625 C-8.12955758 103.8227228 -12.71106086 102.83700337 -18.02441406 101.09814453 C-24.65941167 99.23334358 -31.47314091 100.77838484 -38.125 101.9375 C-39.78597666 102.22158075 -41.44742289 102.50293266 -43.109375 102.78125 C-44.19557129 102.96977539 -44.19557129 102.96977539 -45.30371094 103.16210938 C-47.375 103.4375 -47.375 103.4375 -51.375 103.4375 C-50.92454525 96.96517656 -50.2742931 90.5962528 -49.25 84.1875 C-48.28379958 77.63320015 -48.29365063 72.69805725 -50.3984375 66.3515625 C-54.12118818 53.41260873 -52.07233642 38.21378931 -45.83203125 26.5546875 C-38.17832314 13.69926014 -27.50958282 5.14135312 -13.03369141 1.02416992 C-8.68022595 0.0635292 -4.44466093 -0.0522369 0 0 Z M-28.25 46.5625 C-29.90354531 49.31840884 -29.76865568 51.28825452 -29.375 54.4375 C-28.375 56.4375 -28.375 56.4375 -26.375 57.4375 C-23.22575452 57.83115568 -21.25590884 57.96604531 -18.5 56.3125 C-16.84645469 53.55659116 -16.98134432 51.58674548 -17.375 48.4375 C-18.375 46.4375 -18.375 46.4375 -20.375 45.4375 C-23.52424548 45.04384432 -25.49409116 44.90895469 -28.25 46.5625 Z M-4.125 46.6875 C-5.59513929 48.74569501 -6.22561029 49.89787496 -6.375 52.4375 C-5.52754366 55.29451707 -5.52754366 55.29451707 -3.375 57.4375 C0.125 58.1875 0.125 58.1875 3.625 57.4375 C5.79166667 55.9375 5.79166667 55.9375 6.625 53.4375 C6.63174926 50.31069901 6.63174926 50.31069901 5.625 47.4375 C2.15268038 45.12262025 -0.51216844 44.10690603 -4.125 46.6875 Z M19.25 47.0625 C17.31148916 49.38845516 17.31148916 49.38845516 17.75 52.5625 C18.40808824 55.53431373 18.40808824 55.53431373 20.625 57.4375 C24.67761287 57.78240322 26.17254176 57.73913882 29.625 55.4375 C30.6396239 53.6310345 30.6396239 53.6310345 30.625 51.4375 C29.47713059 49.19393706 28.4154233 47.2279233 26.625 45.4375 C23.35672721 44.99584151 22.00384724 45.17828873 19.25 47.0625 Z " fill="#699AF2" transform="translate(64.375,12.5625)"/>
<path d="M0 0 C-0.0721875 1.30195313 -0.144375 2.60390625 -0.21875 3.9453125 C-0.31258467 5.6718704 -0.40632995 7.39843316 -0.5 9.125 C-0.54769531 9.9809375 -0.59539063 10.836875 -0.64453125 11.71875 C-0.88328599 16.15276665 -1.05272687 20.55776108 -1 25 C-1 32 -1 32 -2 34 C-1.76525146 35.61976496 -1.52625712 37.23902119 -1.26660156 38.85498047 C-0.74234576 43.07303128 -0.85452976 47.31821604 -0.875 51.5625 C-0.87693359 52.53469482 -0.87886719 53.50688965 -0.88085938 54.50854492 C-0.92001392 61.06747532 -1.22159662 67.53831939 -1.77734375 74.07421875 C-2.08108879 78.06553509 -2.06453726 81.99868965 -2 86 C-2 90 -2 90 -3 92 C-2.67 92.99 -2.34 93.98 -2 95 C-2 97 -2 99 -2 101 C-6.39559162 102.29282106 -8.73767367 101.42077544 -13 100 C-19.0971901 99.72798173 -24.75252833 100.45491467 -30.75 101.5 C-32.41097666 101.78408075 -34.07242289 102.06543266 -35.734375 102.34375 C-36.82057129 102.53227539 -36.82057129 102.53227539 -37.92871094 102.72460938 C-40 103 -40 103 -44 103 C-43.54954525 96.52767656 -42.8992931 90.1587528 -41.875 83.75 C-40.90879958 77.19570015 -40.91865063 72.26055725 -43.0234375 65.9140625 C-46.74618818 52.97510873 -44.69733642 37.77628931 -38.45703125 26.1171875 C-30.69653936 13.08240249 -19.78839045 4.44936159 -5.05859375 0.41015625 C-3 0 -3 0 0 0 Z M-20.875 46.125 C-22.52854531 48.88090884 -22.39365568 50.85075452 -22 54 C-21 56 -21 56 -19 57 C-15.85075452 57.39365568 -13.88090884 57.52854531 -11.125 55.875 C-9.47145469 53.11909116 -9.60634432 51.14924548 -10 48 C-11 46 -11 46 -13 45 C-16.14924548 44.60634432 -18.11909116 44.47145469 -20.875 46.125 Z " fill="#6AB1F3" transform="translate(57,13)"/>
<path d="M0 0 C11.00613438 5.50306719 18.49827652 14.74192223 22.84936523 26.24560547 C24.86666713 32.34960532 25.51281498 37.96670367 25.4375 44.375 C25.42920166 45.2932959 25.42090332 46.2115918 25.41235352 47.15771484 C25.06654737 61.09087196 19.61873351 72.42306916 9.9375 82.4375 C1.94019507 90 1.94019507 90 -2 90 C-2.04954963 84.9646141 -2.08579037 79.9293711 -2.10986328 74.89379883 C-2.11990208 73.18185961 -2.13353595 71.46993745 -2.15087891 69.75805664 C-2.17522073 67.29308858 -2.18650438 64.82834785 -2.1953125 62.36328125 C-2.20563507 61.60163162 -2.21595764 60.83998199 -2.22659302 60.05525208 C-2.22745524 55.94357882 -1.98819655 52.64444541 0 49 C0.99 48.505 0.99 48.505 2 48 C2.9442592 46.22915167 2.9442592 46.22915167 3 44 C1.98922073 41.23197129 1.98922073 41.23197129 0 39 C-2.59122743 38.11341534 -2.59122743 38.11341534 -5 38 C-3.02 37.505 -3.02 37.505 -1 37 C-1.00523682 36.0212793 -1.01047363 35.04255859 -1.01586914 34.03417969 C-1.03399561 30.39633095 -1.04545997 26.75848619 -1.05493164 23.12060547 C-1.05995437 21.54735645 -1.06677375 19.97411208 -1.07543945 18.40087891 C-1.08759529 16.13703257 -1.09324896 13.87324807 -1.09765625 11.609375 C-1.10281754 10.90818542 -1.10797882 10.20699585 -1.11329651 9.48455811 C-1.11367502 6.17514249 -1.02514727 3.16412237 0 0 Z " fill="#6672F1" transform="translate(91,20)"/>
<path d="M0 0 C1.58468677 0.45363171 3.16769924 0.91311452 4.75 1.375 C5.63171875 1.63023438 6.5134375 1.88546875 7.421875 2.1484375 C10 3 10 3 14 5 C13.67 17.54 13.34 30.08 13 43 C11.68 43 10.36 43 9 43 C9 43.66 9 44.32 9 45 C8.484375 45.4125 7.96875 45.825 7.4375 46.25 C6.963125 46.8275 6.48875 47.405 6 48 C6.23283149 51.14921909 6.23283149 51.14921909 7 54 C8.98 54.66 10.96 55.32 13 56 C12.67 69.53 12.34 83.06 12 97 C2 101 2 101 -3 101 C-3.02932237 97.33335046 -3.04690637 93.6667316 -3.0625 90 C-3.07087891 88.97003906 -3.07925781 87.94007812 -3.08789062 86.87890625 C-3.09111328 85.86699219 -3.09433594 84.85507813 -3.09765625 83.8125 C-3.10551147 82.42998047 -3.10551147 82.42998047 -3.11352539 81.01953125 C-3 78 -3 78 -2.49780273 74.3515625 C-1.80058278 69.0925941 -1.89471862 63.85866812 -1.9375 58.5625 C-1.94128662 57.48299072 -1.94507324 56.40348145 -1.94897461 55.29125977 C-1.96112618 51.860798 -1.97974729 48.43042291 -2 45 C-2.02669032 40.47916869 -2.046642 35.95838088 -2.0625 31.4375 C-2.07079834 30.41019775 -2.07909668 29.38289551 -2.08764648 28.32446289 C-2.10645833 22.77405125 -1.78871357 17.49288168 -1 12 C-0.96076773 10.02122221 -0.9555979 8.04116853 -1 6.0625 C-1.03712994 4.37540853 -1.04743292 2.68683324 -1 1 C-0.67 0.67 -0.34 0.34 0 0 Z " fill="#6783F1" transform="translate(77,14)"/>
<path d="M0 0 C0.19573608 1.43640171 0.38127816 2.87419504 0.5625 4.3125 C0.66691406 5.11300781 0.77132813 5.91351563 0.87890625 6.73828125 C1 9 1 9 0 12 C-0.09475844 13.95648317 -0.12988471 15.91622955 -0.125 17.875 C-0.12757812 18.90367188 -0.13015625 19.93234375 -0.1328125 20.9921875 C-0.00965507 23.78134112 0.40972802 26.2792151 1 29 C1.16113471 32.86723314 0.79426095 36.22726051 0 40 C0 43.15532255 0.0140771 46.3096418 0.03515625 49.46484375 C0.04445032 51.62239507 0.0535581 53.77994719 0.0625 55.9375 C0.07087891 57.02224609 0.07925781 58.10699219 0.08789062 59.22460938 C0.09272461 60.79758789 0.09272461 60.79758789 0.09765625 62.40234375 C0.10551147 63.83308228 0.10551147 63.83308228 0.11352539 65.29272461 C0.0013859 67.96695011 -0.43130453 70.38977666 -1 73 C-1.06406518 74.51962617 -1.08630367 76.04171026 -1.0625 77.5625 C-1.05347656 78.30628906 -1.04445313 79.05007812 -1.03515625 79.81640625 C-1.02355469 80.53699219 -1.01195313 81.25757812 -1 82 C-1 83.32 -1 84.64 -1 86 C-3.47999067 88.47999067 -4.95418162 88.54722102 -8.375 89.125 C-9.33148438 89.29257813 -10.28796875 89.46015625 -11.2734375 89.6328125 C-14 90 -14 90 -18 90 C-17.54954525 83.52767656 -16.8992931 77.1587528 -15.875 70.75 C-14.90879958 64.19570015 -14.91865063 59.26055725 -17.0234375 52.9140625 C-20.74749635 39.97056201 -18.75226773 24.61489292 -12.3515625 13.01171875 C-4.45836093 0 -4.45836093 0 0 0 Z " fill="#6CD2F4" transform="translate(31,26)"/>
<path d="M0 0 C0.99 0.33 1.98 0.66 3 1 C3 10.66666667 3 20.33333333 3 30 C3.04125 31.155 3.0825 32.31 3.125 33.5 C2.94227504 38.61629881 2.94227504 38.61629881 1 41 C-2.0625 42.1875 -2.0625 42.1875 -5 43 C-6.8018047 44.8018047 -6.17836262 47.20468074 -6.23046875 49.6015625 C-6.07206441 52.15466799 -6.07206441 52.15466799 -5.00390625 55.078125 C-3.51607826 60.02516965 -3.70906158 65.0008745 -3.75 70.125 C-3.74226563 71.10082031 -3.73453125 72.07664062 -3.7265625 73.08203125 C-3.72914062 74.02691406 -3.73171875 74.97179687 -3.734375 75.9453125 C-3.73663086 76.79625488 -3.73888672 77.64719727 -3.74121094 78.52392578 C-4.03149131 81.30130651 -4.8580379 83.46375547 -6 86 C-5.34 86.33 -4.68 86.66 -4 87 C-4.04125 87.94875 -4.0825 88.8975 -4.125 89.875 C-4.34973818 93.10244856 -4.34973818 93.10244856 -2 95 C-7.94 95.99 -7.94 95.99 -14 97 C-13.34 95.35 -12.68 93.7 -12 92 C-12.29960952 89.54320192 -12.83741752 87.44340677 -13.6875 85.125 C-14 83 -14 83 -13.03125 80.10546875 C-11.47076579 74.88079671 -11.74819036 69.59289476 -11.8125 64.1875 C-11.81314453 63.13884766 -11.81378906 62.09019531 -11.81445312 61.00976562 C-11.62023471 55.83880999 -11.62023471 55.83880999 -13 51 C-12.34 51 -11.68 51 -11 51 C-11.2784375 49.6696875 -11.2784375 49.6696875 -11.5625 48.3125 C-11.9907205 45.07025908 -11.70631582 43.1391814 -11 40 C-10.80790418 35.38970028 -11.28868136 31.34735152 -12.625 26.9375 C-13.06589391 24.65954814 -12.59077962 23.21542357 -12 21 C-12.33 20.34 -12.66 19.68 -13 19 C-12.34 18.34 -11.68 17.68 -11 17 C-10.97691403 14.77871445 -10.97691403 14.77871445 -11.375 12.375 C-11.48585938 11.55773438 -11.59671875 10.74046875 -11.7109375 9.8984375 C-11.85402344 8.95871094 -11.85402344 8.95871094 -12 8 C-10.37615858 6.85252535 -8.75088944 5.7070709 -7.125 4.5625 C-6.22007813 3.92441406 -5.31515625 3.28632813 -4.3828125 2.62890625 C-2 1 -2 1 0 0 Z M1 1 C2 3 2 3 2 3 Z " fill="#6BC1F3" transform="translate(42,17)"/>
<path d="M0 0 C2.90197883 0.32456342 3.85077603 0.82557812 5.78125 3.08203125 C14.85070787 17.49010183 17.3921282 31.83621758 14.33984375 48.6328125 C11.87155043 56.81771588 7.31379551 65.14678532 1 71 C0.01 70.67 -0.98 70.34 -2 70 C-2.02888146 66.68751813 -2.04675799 63.37506833 -2.0625 60.0625 C-2.07087891 59.11697266 -2.07925781 58.17144531 -2.08789062 57.19726562 C-2.09111328 56.29814453 -2.09433594 55.39902344 -2.09765625 54.47265625 C-2.10289307 53.64000244 -2.10812988 52.80734863 -2.11352539 51.94946289 C-2 50 -2 50 -1 49 C-0.91233726 47.60874288 -0.89304593 46.21307698 -0.90234375 44.8190918 C-0.90729858 43.48717049 -0.90729858 43.48717049 -0.91235352 42.12834167 C-0.92065186 41.16173111 -0.9289502 40.19512054 -0.9375 39.19921875 C-0.94128662 38.21129837 -0.94507324 37.22337799 -0.94897461 36.20552063 C-0.96538393 31.96126345 -0.99343157 27.71710081 -1.02050781 23.47290039 C-1.03857819 20.38167769 -1.0506858 17.29047067 -1.0625 14.19921875 C-1.07079834 13.23868088 -1.07909668 12.27814301 -1.08764648 11.28849792 C-1.09094971 10.3910939 -1.09425293 9.49368988 -1.09765625 8.5690918 C-1.10289307 7.78157028 -1.10812988 6.99404877 -1.11352539 6.18266296 C-0.99990845 3.9982399 -0.60419034 2.09728788 0 0 Z " fill="#6563F0" transform="translate(101,30)"/>
</svg>
